<svg xmlns="http://www.w3.org/2000/svg" width="162.226" height="39.555" viewBox="0 0 162.226 39.555">
  <g id="logo" transform="translate(-6.331 -10.08)">
    <g id="Group_1" data-name="Group 1" transform="translate(25.866 10.11)">
      <path id="Path_1" data-name="Path 1" d="M79.21,26.073q-3.613,0-5.361-1.9T72.1,18.126q0-4.142,1.748-6.043t5.361-1.9c2.409,0,4.217.634,5.373,1.9s1.736,3.284,1.736,6.043-.58,4.776-1.736,6.043-2.947,1.9-5.373,1.9Zm0-1.677a6.179,6.179,0,0,0,2.884-.6,3.711,3.711,0,0,0,1.7-1.975,10,10,0,0,0,.562-3.7,10,10,0,0,0-.562-3.7,3.71,3.71,0,0,0-1.7-1.975,7.256,7.256,0,0,0-5.768,0,3.723,3.723,0,0,0-1.7,1.975,9.951,9.951,0,0,0-.562,3.7,10.013,10.013,0,0,0,.562,3.7,3.71,3.71,0,0,0,1.7,1.975A6.143,6.143,0,0,0,79.21,24.4Z" transform="translate(-71.98 -10.18)"/>
      <path id="Path_2" data-name="Path 2" d="M129.273,26.395V10.98h6.509a4.8,4.8,0,0,1,3.8,1.39,5.241,5.241,0,0,1,1.219,3.589,4.72,4.72,0,0,1-1.375,3.553,5.222,5.222,0,0,1-3.745,1.3h-4.453v5.576H129.27Zm1.963-7.11h4.139a3.472,3.472,0,0,0,2.6-.9,3.33,3.33,0,0,0,.873-2.43,3.6,3.6,0,0,0-.825-2.525,3.271,3.271,0,0,0-2.525-.9h-4.262v6.748Z" transform="translate(-112.065 -10.741)"/>
      <path id="Path_3" data-name="Path 3" d="M175.89,26.395V10.98h6.031q3.349,0,4.907,1.82t1.557,5.983q0,3.949-1.521,5.78t-4.943,1.832H175.89Zm1.963-1.533h3.709a6.551,6.551,0,0,0,2.7-.49,3.205,3.205,0,0,0,1.617-1.808,10.389,10.389,0,0,0,.538-3.78,11.629,11.629,0,0,0-.49-3.8,3.231,3.231,0,0,0-1.557-1.9,6.267,6.267,0,0,0-2.812-.538h-3.709Z" transform="translate(-144.753 -10.741)"/>
      <path id="Path_4" data-name="Path 4" d="M221.293,26.395l5.863-15.415h2.3l5.839,15.415h-2.011l-1.629-4.238h-6.7l-1.629,4.238H221.29Zm4-5.792H231.3L228.28,12.68Z" transform="translate(-176.585 -10.741)"/>
      <path id="Path_5" data-name="Path 5" d="M279.154,26.08a8.157,8.157,0,0,1-4.127-.944,5.948,5.948,0,0,1-2.454-2.657,9.225,9.225,0,0,1-.813-4.008,11.49,11.49,0,0,1,.765-4.381,5.986,5.986,0,0,1,2.394-2.884,7.842,7.842,0,0,1,4.214-1.016,14.012,14.012,0,0,1,2.43.191,13.057,13.057,0,0,1,2.047.526v1.724a12.169,12.169,0,0,0-2.035-.562,12.334,12.334,0,0,0-2.274-.2,6.026,6.026,0,0,0-3.3.789,4.357,4.357,0,0,0-1.748,2.274,10.577,10.577,0,0,0-.526,3.541,6.6,6.6,0,0,0,1.315,4.393,5.283,5.283,0,0,0,4.235,1.545,11.629,11.629,0,0,0,1.987-.167,9.041,9.041,0,0,0,1.7-.454V18.88h-4.118V17.542h5.816v7.325a7.556,7.556,0,0,1-2.023.837,12.982,12.982,0,0,1-3.482.383Z" transform="translate(-211.973 -10.187)"/>
      <path id="Path_6" data-name="Path 6" d="M342.95,26.395V10.98h6.031q3.349,0,4.907,1.82t1.557,5.983q0,3.949-1.521,5.78t-4.943,1.832Zm1.963-1.533h3.709a6.552,6.552,0,0,0,2.7-.49,3.205,3.205,0,0,0,1.617-1.808,10.39,10.39,0,0,0,.538-3.78,11.628,11.628,0,0,0-.49-3.8,3.241,3.241,0,0,0-1.557-1.9,6.267,6.267,0,0,0-2.812-.538h-3.709Z" transform="translate(-261.888 -10.741)"/>
      <path id="Path_7" data-name="Path 7" d="M394.37,26.395V10.98h1.963V26.395Z" transform="translate(-297.941 -10.741)"/>
      <path id="Path_8" data-name="Path 8" d="M414.062,26.395V12.537H408.94V10.98h12.2v1.557h-5.122V26.395h-1.963Z" transform="translate(-308.157 -10.741)"/>
      <path id="Path_9" data-name="Path 9" d="M71.7,102.025V86.61h4.5v5.433l4.668-5.433h5.122l-5.433,6.318,5.816,9.094H81.586l-3.8-6.222L76.2,97.572v4.453Z" transform="translate(-71.7 -63.769)"/>
      <path id="Path_10" data-name="Path 10" d="M124.205,100.546l.693-1.772a5.7,5.7,0,0,1-2.764-2.573,9.66,9.66,0,0,1-.944-4.584,10.206,10.206,0,0,1,.908-4.632,5.522,5.522,0,0,1,2.669-2.561,10.321,10.321,0,0,1,4.3-.8c.32,0,.625.012.92.036s.58.051.849.084l.406-1.052h2.442l-.646,1.6a5.625,5.625,0,0,1,2.908,2.549,9.837,9.837,0,0,1,.992,4.776q0,4.164-2.035,6.031a8.329,8.329,0,0,1-5.839,1.868,12.627,12.627,0,0,1-1.963-.143l-.454,1.171H124.2Zm2.322-5.863,2.824-7.205a.774.774,0,0,1-.143-.012.775.775,0,0,0-.143-.012,3.07,3.07,0,0,0-2.5.944,6.878,6.878,0,0,0-.036,6.282Zm2.537,1a3.025,3.025,0,0,0,2.5-.968,6.634,6.634,0,0,0-.108-6.425l-2.9,7.373a1.375,1.375,0,0,0,.251.024h.251Z" transform="translate(-106.4 -61.021)"/>
      <path id="Path_11" data-name="Path 11" d="M181.1,102.025V86.61h8.472a5.164,5.164,0,0,1,3.565,1.1,4.039,4.039,0,0,1,1.219,3.159,4.162,4.162,0,0,1-.442,2.011,3.579,3.579,0,0,1-1.16,1.294,3.687,3.687,0,0,1,1.569,1.112,3.4,3.4,0,0,1,.586,2.167,4.3,4.3,0,0,1-1.339,3.374,5.525,5.525,0,0,1-3.8,1.2H181.1Zm4.333-9.261h2.92c1.1,0,1.653-.493,1.653-1.482a1.5,1.5,0,0,0-.394-1.124,1.964,1.964,0,0,0-1.375-.383h-2.8v2.991Zm0,6.126h3.111a1.978,1.978,0,0,0,1.339-.383,1.625,1.625,0,0,0,.43-1.27,1.425,1.425,0,0,0-.43-1.124,2.156,2.156,0,0,0-1.437-.383H185.43V98.89Z" transform="translate(-148.406 -63.769)"/>
      <path id="Path_12" data-name="Path 12" d="M234.52,102.025V86.61H246.2v3.446h-7.181v2.513h6.294v3.494h-6.294v2.513H246.2v3.446H234.52Z" transform="translate(-185.862 -63.769)"/>
      <path id="Path_13" data-name="Path 13" d="M280,102.025V86.61h3.828l5.816,8.162V86.61h4.5v15.415h-3.852L284.5,93.887v8.138Z" transform="translate(-217.75 -63.769)"/>
      <path id="Path_14" data-name="Path 14" d="M336.15,102.025V86.61h4.5v5.744h5.314V86.61h4.5v15.415h-4.5V96.281h-5.314v5.744Z" transform="translate(-257.12 -63.769)"/>
      <path id="Path_15" data-name="Path 15" d="M391.226,102.025l5.911-15.415H401.9l5.911,15.415H403.12l-1.294-3.278h-4.644l-1.27,3.278H391.22Zm6.557-6.509h3.446L399.5,90.991l-1.724,4.525Z" transform="translate(-295.732 -63.769)"/>
      <path id="Path_16" data-name="Path 16" d="M446.251,102.025,440.34,86.61h4.692l3.589,10.2,3.589-10.2h4.716l-5.911,15.415h-4.764Z" transform="translate(-330.173 -63.769)"/>
      <path id="Path_17" data-name="Path 17" d="M501.84,102.025V86.61h3.828l5.816,8.162V86.61h4.5v15.415h-3.852l-5.792-8.138v8.138Z" transform="translate(-373.294 -63.769)"/>
    </g>
    <path id="Path_18" data-name="Path 18" d="M7.1,48.132V40.963a1.048,1.048,0,0,0-.586-1.121.42.42,0,0,1,.251-.768h11.2a.42.42,0,0,1,.251.768,1.048,1.048,0,0,0-.586,1.121v7.169c0,.117-.066.167-.182.167H7.278C7.162,48.3,7.1,48.249,7.1,48.132Zm9.157-9.811H13.461V34.813c0-.8-.418-1.186-1.1-1.186s-1.1.386-1.1,1.186v3.508H8.465a.149.149,0,0,1-.149-.149V32.789c0-.418-.5-.634-.637-.717-.317-.233-.2-.568.1-.568h9.157c.3,0,.418.335.1.568-.134.084-.634.3-.634.717v5.382a.147.147,0,0,1-.149.149Zm.033-8.389v.651a.131.131,0,0,1-.149.149H8.366c-.1,0-.167-.033-.167-.149v-.651c0-.117.066-.149.167-.149h.6v-.669c0-.117.018-.167.149-.251l6.1-3.443c.167-.1.3-.066.3.1v4.262h.619a.131.131,0,0,1,.149.149Zm-1.42-9.91v1.871a.474.474,0,0,1-.251.418l-.167.084V24.67a.315.315,0,0,1-.182.335l-3.777,2.155c-.149.066-.266.033-.266-.117V24.9l-.269.149c-.149.117-.269.033-.269-.117V23c0-.149.117-.233.269-.3l4.662-2.824c.149-.033.251.033.251.149ZM14.149,16.3v1.1c0,.251-.018.284-.251.418l-.134.084v1.321c0,.218-.018.251-.185.35l-2.406,1.372c-.167.1-.269.033-.269-.117V19.64l-.269.167c-.167.084-.3.051-.3-.2V18.588c0-.218.033-.251.3-.418l3.242-2.023c.149-.1.269-.018.269.149ZM12.362,42.084a1.293,1.293,0,0,0-1.4,1.42v3.392h2.806V43.5a1.292,1.292,0,0,0-1.4-1.42Zm.651-26.3-1.42.852c-.149.1-.269.051-.269-.149v-1.07a.4.4,0,0,1,.218-.4l.433-.284v-1.7a1.181,1.181,0,0,1-.837-1.07,1.117,1.117,0,0,1,.837-1.07v-.5a.268.268,0,0,1,.284-.3c.218,0,.284.134.284.3v.5a1.077,1.077,0,0,1,.852,1.07,1.132,1.132,0,0,1-.852,1.07V14.4l.386-.269c.134-.1.269-.066.269.117v1.186C13.2,15.648,13.18,15.68,13.013,15.779Z" transform="translate(0)"/>
  </g>
</svg>
